<mxfile host="app.diagrams.net" modified="2023-12-14T13:20:06.933Z" agent="Mozilla/5.0 (X11; Linux x86_64) AppleWebKit/537.36 (KHTML, like Gecko) Chrome/119.0.0.0 Safari/537.36" etag="Nuzm8cTgcwNK4XL6PmH9" version="22.1.8" type="github">
  <diagram name="Page-1" id="YUkULjERK0X3Gxe00vvD">
    <mxGraphModel dx="1687" dy="2155" grid="1" gridSize="10" guides="1" tooltips="1" connect="1" arrows="1" fold="1" page="1" pageScale="1" pageWidth="827" pageHeight="1169" math="0" shadow="0">
      <root>
        <mxCell id="0" />
        <mxCell id="1" parent="0" />
        <mxCell id="BAmfAh22jGZhXwGGAxlv-1" style="edgeStyle=orthogonalEdgeStyle;rounded=0;orthogonalLoop=1;jettySize=auto;html=1;entryX=0.25;entryY=0;entryDx=0;entryDy=0;exitX=0.96;exitY=0.7;exitDx=0;exitDy=0;exitPerimeter=0;shape=flexArrow;" edge="1" parent="1" source="CmCveuowge2aYoOE-A_b-1">
          <mxGeometry relative="1" as="geometry">
            <mxPoint x="220" y="75" as="sourcePoint" />
            <mxPoint x="347.5" y="290" as="targetPoint" />
            <Array as="points">
              <mxPoint x="348" y="105" />
              <mxPoint x="348" y="200" />
            </Array>
          </mxGeometry>
        </mxCell>
        <mxCell id="BAmfAh22jGZhXwGGAxlv-2" value="Flux de récupération des données marchand" style="edgeLabel;html=1;align=center;verticalAlign=middle;resizable=0;points=[];fontSize=15;" vertex="1" connectable="0" parent="BAmfAh22jGZhXwGGAxlv-1">
          <mxGeometry x="0.4143" y="3" relative="1" as="geometry">
            <mxPoint x="29" y="-47" as="offset" />
          </mxGeometry>
        </mxCell>
        <mxCell id="CmCveuowge2aYoOE-A_b-1" value="Boutique Partenaires" style="ellipse;shape=cloud;whiteSpace=wrap;html=1;fontSize=13;" parent="1" vertex="1">
          <mxGeometry width="210" height="150" as="geometry" />
        </mxCell>
        <mxCell id="CmCveuowge2aYoOE-A_b-2" value="Fichier produits mis à disposition.&lt;br style=&quot;font-size: 13px;&quot;&gt;Données présentes: Prix, Stock, Logo ..." style="shape=note;whiteSpace=wrap;html=1;backgroundOutline=1;darkOpacity=0.05;align=left;fontSize=13;fillColor=#fff2cc;strokeColor=#d6b656;" parent="1" vertex="1">
          <mxGeometry x="220" width="260" height="50" as="geometry" />
        </mxCell>
        <mxCell id="CmCveuowge2aYoOE-A_b-11" value="Backend SWIP" style="swimlane;whiteSpace=wrap;html=1;fontSize=13;" parent="1" vertex="1">
          <mxGeometry x="200" y="290" width="550" height="230" as="geometry">
            <mxRectangle x="260" y="260" width="130" height="30" as="alternateBounds" />
          </mxGeometry>
        </mxCell>
        <mxCell id="CmCveuowge2aYoOE-A_b-13" value="ETL" style="swimlane;fontStyle=0;childLayout=stackLayout;horizontal=1;startSize=30;horizontalStack=0;resizeParent=1;resizeParentMax=0;resizeLast=0;collapsible=1;marginBottom=0;whiteSpace=wrap;html=1;fontSize=13;" parent="CmCveuowge2aYoOE-A_b-11" vertex="1">
          <mxGeometry x="330" y="30" width="220" height="90" as="geometry">
            <mxRectangle x="-30" y="420" width="90" height="30" as="alternateBounds" />
          </mxGeometry>
        </mxCell>
        <mxCell id="CmCveuowge2aYoOE-A_b-14" value="Récupération Info ~temps réel" style="text;strokeColor=none;fillColor=none;align=left;verticalAlign=middle;spacingLeft=4;spacingRight=4;overflow=hidden;points=[[0,0.5],[1,0.5]];portConstraint=eastwest;rotatable=0;whiteSpace=wrap;html=1;fontSize=13;" parent="CmCveuowge2aYoOE-A_b-13" vertex="1">
          <mxGeometry y="30" width="220" height="30" as="geometry" />
        </mxCell>
        <mxCell id="CmCveuowge2aYoOE-A_b-15" value="Historisation prix et Comparaison" style="text;strokeColor=none;fillColor=none;align=left;verticalAlign=middle;spacingLeft=4;spacingRight=4;overflow=hidden;points=[[0,0.5],[1,0.5]];portConstraint=eastwest;rotatable=0;whiteSpace=wrap;html=1;fontSize=13;" parent="CmCveuowge2aYoOE-A_b-13" vertex="1">
          <mxGeometry y="60" width="220" height="30" as="geometry" />
        </mxCell>
        <mxCell id="CmCveuowge2aYoOE-A_b-20" value="API" style="swimlane;fontStyle=0;childLayout=stackLayout;horizontal=1;startSize=30;horizontalStack=0;resizeParent=1;resizeParentMax=0;resizeLast=0;collapsible=1;marginBottom=0;whiteSpace=wrap;html=1;" parent="CmCveuowge2aYoOE-A_b-11" vertex="1">
          <mxGeometry y="30" width="220" height="150" as="geometry" />
        </mxCell>
        <mxCell id="CmCveuowge2aYoOE-A_b-21" value="Popularité Produits" style="text;strokeColor=none;fillColor=none;align=left;verticalAlign=middle;spacingLeft=4;spacingRight=4;overflow=hidden;points=[[0,0.5],[1,0.5]];portConstraint=eastwest;rotatable=0;whiteSpace=wrap;html=1;" parent="CmCveuowge2aYoOE-A_b-20" vertex="1">
          <mxGeometry y="30" width="220" height="30" as="geometry" />
        </mxCell>
        <mxCell id="CmCveuowge2aYoOE-A_b-26" value="Produit similaires" style="text;strokeColor=none;fillColor=none;align=left;verticalAlign=middle;spacingLeft=4;spacingRight=4;overflow=hidden;points=[[0,0.5],[1,0.5]];portConstraint=eastwest;rotatable=0;whiteSpace=wrap;html=1;" parent="CmCveuowge2aYoOE-A_b-20" vertex="1">
          <mxGeometry y="60" width="220" height="30" as="geometry" />
        </mxCell>
        <mxCell id="CmCveuowge2aYoOE-A_b-22" value="Tracking (ctr)" style="text;strokeColor=none;fillColor=none;align=left;verticalAlign=middle;spacingLeft=4;spacingRight=4;overflow=hidden;points=[[0,0.5],[1,0.5]];portConstraint=eastwest;rotatable=0;whiteSpace=wrap;html=1;" parent="CmCveuowge2aYoOE-A_b-20" vertex="1">
          <mxGeometry y="90" width="220" height="30" as="geometry" />
        </mxCell>
        <mxCell id="BAmfAh22jGZhXwGGAxlv-3" value="DropList ( Price Alert)&amp;nbsp;" style="text;strokeColor=none;fillColor=none;align=left;verticalAlign=middle;spacingLeft=4;spacingRight=4;overflow=hidden;points=[[0,0.5],[1,0.5]];portConstraint=eastwest;rotatable=0;whiteSpace=wrap;html=1;" vertex="1" parent="CmCveuowge2aYoOE-A_b-20">
          <mxGeometry y="120" width="220" height="30" as="geometry" />
        </mxCell>
        <mxCell id="CmCveuowge2aYoOE-A_b-18" style="edgeStyle=orthogonalEdgeStyle;rounded=0;orthogonalLoop=1;jettySize=auto;html=1;entryX=0.55;entryY=0.95;entryDx=0;entryDy=0;entryPerimeter=0;dashed=1;dashPattern=8 8;fontSize=13;exitX=0;exitY=0.5;exitDx=0;exitDy=0;" parent="1" source="CmCveuowge2aYoOE-A_b-22" edge="1">
          <mxGeometry relative="1" as="geometry">
            <mxPoint x="694.5" y="380" as="sourcePoint" />
            <mxPoint x="110" y="142.5" as="targetPoint" />
            <Array as="points">
              <mxPoint x="110" y="395" />
            </Array>
          </mxGeometry>
        </mxCell>
        <mxCell id="CmCveuowge2aYoOE-A_b-19" value="ROI" style="edgeLabel;html=1;align=center;verticalAlign=middle;resizable=0;points=[];fontStyle=1;fontSize=14;" parent="CmCveuowge2aYoOE-A_b-18" vertex="1" connectable="0">
          <mxGeometry x="0.238" y="-3" relative="1" as="geometry">
            <mxPoint x="17" y="84" as="offset" />
          </mxGeometry>
        </mxCell>
        <mxCell id="CmCveuowge2aYoOE-A_b-38" style="rounded=0;orthogonalLoop=1;jettySize=auto;html=1;shape=flexArrow;endArrow=block;endFill=0;startArrow=block;entryX=1;entryY=0.5;entryDx=0;entryDy=0;" parent="1" source="CmCveuowge2aYoOE-A_b-24" target="CmCveuowge2aYoOE-A_b-15" edge="1">
          <mxGeometry relative="1" as="geometry">
            <mxPoint x="810" y="390" as="targetPoint" />
          </mxGeometry>
        </mxCell>
        <mxCell id="CmCveuowge2aYoOE-A_b-24" value="Frontend SWIP" style="swimlane;whiteSpace=wrap;html=1;" parent="1" vertex="1">
          <mxGeometry x="950" y="517.5" width="440" height="315" as="geometry">
            <mxRectangle x="225" y="520" width="130" height="30" as="alternateBounds" />
          </mxGeometry>
        </mxCell>
        <mxCell id="CmCveuowge2aYoOE-A_b-33" value="SPA" style="ellipse;whiteSpace=wrap;html=1;fontSize=22;" parent="CmCveuowge2aYoOE-A_b-24" vertex="1">
          <mxGeometry x="50" y="155" width="149" height="110" as="geometry" />
        </mxCell>
        <mxCell id="CmCveuowge2aYoOE-A_b-34" value="Chrome Extension" style="ellipse;whiteSpace=wrap;html=1;fontSize=19;" parent="CmCveuowge2aYoOE-A_b-24" vertex="1">
          <mxGeometry x="260" y="165" width="140" height="105" as="geometry" />
        </mxCell>
        <mxCell id="CmCveuowge2aYoOE-A_b-41" value="&lt;font style=&quot;font-size: 14px;&quot;&gt;SPA&lt;/font&gt; : Navigation classique avec toutes les données disponibles.&lt;br&gt;&lt;br&gt;&lt;font style=&quot;font-size: 14px;&quot;&gt;Extension&lt;/font&gt;: &quot;Etend&quot; les données en lien avec la page visitée &lt;br&gt;&lt;div style=&quot;text-align: justify;&quot;&gt;&lt;span style=&quot;background-color: initial;&quot;&gt;(Historique produit + Comparaison marchand).&lt;/span&gt;&lt;/div&gt;&lt;br&gt;Analyse trafic +++" style="shape=note;whiteSpace=wrap;html=1;backgroundOutline=1;darkOpacity=0.05;verticalAlign=top;spacingLeft=0;align=left;spacingRight=-32;fillColor=#fff2cc;strokeColor=#d6b656;" parent="CmCveuowge2aYoOE-A_b-24" vertex="1">
          <mxGeometry x="10" y="35" width="390" height="100" as="geometry" />
        </mxCell>
        <mxCell id="CmCveuowge2aYoOE-A_b-40" style="edgeStyle=orthogonalEdgeStyle;rounded=0;orthogonalLoop=1;jettySize=auto;html=1;entryX=0.75;entryY=0;entryDx=0;entryDy=0;shape=flexArrow;" parent="1" source="CmCveuowge2aYoOE-A_b-39" target="CmCveuowge2aYoOE-A_b-11" edge="1">
          <mxGeometry relative="1" as="geometry" />
        </mxCell>
        <mxCell id="CmCveuowge2aYoOE-A_b-39" value="&lt;font style=&quot;font-size: 15px;&quot;&gt;Coupons&lt;/font&gt;" style="ellipse;shape=cloud;whiteSpace=wrap;html=1;fontSize=13;" parent="1" vertex="1">
          <mxGeometry x="780" y="-10" width="227" height="150" as="geometry" />
        </mxCell>
      </root>
    </mxGraphModel>
  </diagram>
</mxfile>
